<?xml version="1.0" encoding="utf-8"?>
<!-- Generator: Adobe Illustrator 16.2.1, SVG Export Plug-In . SVG Version: 6.00 Build 0)  -->
<!DOCTYPE svg PUBLIC "-//W3C//DTD SVG 1.1//EN" "http://www.w3.org/Graphics/SVG/1.1/DTD/svg11.dtd">
<svg version="1.1" id="Layer_1" xmlns="http://www.w3.org/2000/svg" xmlns:xlink="http://www.w3.org/1999/xlink" x="0px" y="0px"
	 width="381px" height="381px" viewBox="0 0 381 381" enable-background="new 0 0 381 381" xml:space="preserve">
<g>
	<path fill-rule="evenodd" clip-rule="evenodd" fill="#2C3530" d="M190.5,0C295.71,0,381,85.29,381,190.5S295.71,381,190.5,381
		S0,295.71,0,190.5S85.29,0,190.5,0"/>
	<path fill-rule="evenodd" clip-rule="evenodd" fill="#E84232" d="M190.5,350.378c-88.157,0-159.877-71.721-159.877-159.878
		S102.343,30.623,190.5,30.623s159.878,71.72,159.878,159.877S278.657,350.378,190.5,350.378"/>
	<path fill="#FFFFFF" d="M190.5,33.623c41.904,0,81.299,16.318,110.929,45.948c29.63,29.631,45.949,69.026,45.949,110.93
		c0,41.903-16.319,81.298-45.949,110.929c-29.63,29.63-69.024,45.948-110.929,45.948c-41.904,0-81.299-16.318-110.929-45.948
		c-29.63-29.631-45.949-69.026-45.949-110.929c0-41.904,16.319-81.299,45.949-110.93C109.201,49.94,148.596,33.623,190.5,33.623
		 M190.5,27.623c-89.955,0-162.878,72.923-162.878,162.878c0,89.954,72.923,162.877,162.878,162.877S353.378,280.454,353.378,190.5
		C353.378,100.545,280.455,27.623,190.5,27.623"/>
	<polygon fill-rule="evenodd" clip-rule="evenodd" fill="#FFFFFF" points="91.071,209.357 101.357,136.786 176.785,119.643 
		247.071,213.928 126.5,223.071 	"/>
	<path fill-rule="evenodd" clip-rule="evenodd" fill="#2C3530" d="M201.188,287.021c-8.245,0-15.762-1.558-22.342-4.631
		c-16.914-7.901-83.602-41.547-86.437-42.978c-1.815-0.819-17.903-8.686-17.408-29.492c0.449-18.821,0.004-46.824,0-47.105
		l-0.005-0.338l0.051-0.336c0.1-0.651,2.71-15.996,24.757-20.497c19.276-3.935,55.661-12.769,56.026-12.858l2.918-0.709
		l12.851,22.365l-51.62,11.407l57.635,25.076c2.107,0.671,15.512,5.307,20.577,16.135c9.618-2.795,38.359-11.612,62.484-19.065
		l-15.941-5.595l1.905,3.79l-37.637,13.368L150.257,95.077l43.215-5.372l32.973,56.836l56.764,18.816
		c2.213,0.594,18.62,5.785,20.143,29.362c1.331,20.585,0.192,42.255,0.021,45.269c0.291,3.583-1.075,18.199-39.536,29.703
		l-45.312,15.021C218.136,284.831,210.889,287.021,201.188,287.021"/>
	<path fill="#FFFFFF" d="M191.341,94l32.406,55.859l58.33,19.336c0,0,15.856,3.708,17.283,25.781c1.427,22.072,0,45.117,0,45.117
		s2.715,14-36.727,25.78l-45.369,15.039c0,0-6.864,2.107-16.078,2.107c-6.27,0-13.625-0.976-20.647-4.255
		c-17.34-8.1-86.416-42.97-86.416-42.97S78.544,229.135,79,210.016s0-47.265,0-47.265s2.033-13.193,21.604-17.188
		c19.571-3.995,56.17-12.89,56.17-12.89l8.642,15.039l-58.331,12.89l69.133,30.078c0,0,16.481,4.901,19.443,17.188
		c0,0.004,0.007,0.007,0.021,0.007c1.451,0,77.754-23.64,77.754-23.64l-36.727-12.891l4.321,8.594l-30.246,10.742l-54.01-92.382
		L191.341,94 M195.605,85.408l-5.252,0.653l-34.566,4.297l-12.045,1.497l6.126,10.479l54.01,92.383l1.234,2.11
		c-1.86,0.561-3.536,1.062-4.989,1.493c-2.558-3.973-6.302-7.518-11.104-10.47c-4.429-2.723-8.514-4.19-9.988-4.672l-46.16-20.083
		l34.271-7.574l10.638-2.351l-5.428-9.446l-8.641-15.039l-2.992-5.206l-5.834,1.418c-0.365,0.088-36.681,8.906-55.881,12.826
		c-12.505,2.552-19.331,8.488-22.855,13.017c-4.027,5.176-4.918,9.897-5.056,10.79l-0.103,0.67l0.011,0.678
		c0.005,0.28,0.448,28.208,0.001,46.945c-0.544,22.843,16.906,31.9,19.644,33.179c4.274,2.157,69.461,35.049,86.507,43.011
		c7.113,3.322,15.2,5.007,24.034,5.007c10.296,0,18.1-2.358,18.427-2.459l0.085-0.026l0.085-0.028l45.255-15.002
		c17.795-5.327,30.185-11.969,36.83-19.739c5.098-5.964,5.66-11.143,5.513-13.79c0.222-3.904,1.293-24.933-0.037-45.516
		c-1.652-25.583-19.525-31.937-22.92-32.915l-55.28-18.325L198.26,89.985L195.605,85.408z"/>
	<polygon fill-rule="evenodd" clip-rule="evenodd" fill="#FFFFFF" points="195.822,218.133 280.077,192.352 280.077,246.062 
		271.436,248.21 271.436,215.984 262.794,218.133 262.794,252.508 254.152,254.655 254.152,220.28 245.511,222.43 245.511,258.952 
		236.87,261.102 236.87,224.577 228.228,226.727 228.228,265.398 219.586,267.547 219.586,228.874 210.944,231.023 210.944,269.694 
		195.822,273.991 	"/>
</g>
</svg>
