<?xml version="1.0" encoding="UTF-8" standalone="no"?>
<svg
   xmlns:dc="http://purl.org/dc/elements/1.1/"
   xmlns:cc="http://creativecommons.org/ns#"
   xmlns:rdf="http://www.w3.org/1999/02/22-rdf-syntax-ns#"
   xmlns:svg="http://www.w3.org/2000/svg"
   xmlns="http://www.w3.org/2000/svg"
   viewBox="0 0 306.07501 81.175003"
   height="81.175003"
   width="306.07501"
   xml:space="preserve"
   version="1.1"
   id="svg2"><metadata
     id="metadata8"><rdf:RDF><cc:Work
         rdf:about=""><dc:format>image/svg+xml</dc:format><dc:type
           rdf:resource="http://purl.org/dc/dcmitype/StillImage" /></cc:Work></rdf:RDF></metadata><defs
     id="defs6"><clipPath
       id="clipPath18"
       clipPathUnits="userSpaceOnUse"><path
         id="path20"
         d="m 0,0 2448.62,0 0,649 L 0,649 0,0 Z" /></clipPath></defs><g
     transform="matrix(1.25,0,0,-1.25,0,81.175)"
     id="g10"><g
       transform="scale(0.1,0.1)"
       id="g12"><g
         id="g14"><g
           clip-path="url(#clipPath18)"
           id="g16"><g
             transform="scale(10,10)"
             id="g22"><text
               id="text24"
               style="font-style:italic;font-variant:normal;font-weight:bold;font-size:16.68820381px;font-family:Klavika;-inkscape-font-specification:Klavika-BoldItalic;writing-mode:lr-tb;fill:#2e64b3;fill-opacity:1;fill-rule:nonzero;stroke:none"
               transform="matrix(0.999391,0,-0.0349001,-0.999391,123.229,5.05352)"><tspan
                 id="tspan26"
                 y="0"
                 x="0 5.8072577 14.318322 23.296474 32.258011 40.935188 49.563522 55.670776 60.026955 68.537041">foundation</tspan></text>
</g><path
             id="path28"
             style="fill:#2e64b3;fill-opacity:1;fill-rule:nonzero;stroke:none"
             d="M 28.5273,525.332 C -11.2305,468.223 -6.3125,393.918 24.0977,333.227 c 0.6835,-1.485 1.4648,-2.883 2.2109,-4.317 0.4258,-0.926 0.9141,-1.855 1.4336,-2.765 0.2266,-0.504 0.5898,-1.063 0.8789,-1.551 0.4883,-0.989 1.0078,-1.903 1.5312,-2.848 0.9766,-1.644 1.9532,-3.316 2.9297,-4.949 0.5547,-0.906 1.0742,-1.82 1.6953,-2.735 1.043,-1.757 2.2461,-3.5 3.3165,-5.257 0.4921,-0.746 0.9492,-1.481 1.4648,-2.211 1.5625,-2.379 3.125,-4.723 4.8555,-7.039 0,-0.063 0.0625,-0.125 0.1328,-0.16 0.2578,-0.391 0.5508,-0.766 0.8086,-1.122 1.4648,-2.003 2.9336,-3.957 4.4648,-5.894 0.5235,-0.719 1.1055,-1.434 1.625,-2.137 1.4024,-1.691 2.7695,-3.383 4.1367,-5.062 0.5196,-0.602 1.043,-1.235 1.5938,-1.856 1.8242,-2.195 3.7461,-4.379 5.6992,-6.527 0,-0.035 0.0664,-0.082 0.0977,-0.133 0.0625,-0.078 0.1328,-0.16 0.2578,-0.242 1.8906,-2.067 3.8086,-4.102 5.7695,-6.117 0.6133,-0.621 1.2344,-1.223 1.918,-1.875 1.5,-1.516 2.9961,-3.043 4.5898,-4.543 0.6524,-0.621 1.3047,-1.219 1.9219,-1.821 2.082,-1.953 4.168,-3.906 6.3515,-5.781 0.0313,-0.035 0.0626,-0.051 0.0977,-0.086 0.3555,-0.304 0.7461,-0.613 1.0742,-0.926 1.9219,-1.64 3.8399,-3.269 5.793,-4.882 0.7812,-0.649 1.5625,-1.27 2.3437,-1.907 1.6329,-1.281 3.2579,-2.523 4.8829,-3.757 0.8515,-0.633 1.6953,-1.289 2.5743,-1.954 1.758,-1.32 3.586,-2.605 5.375,-3.875 0.648,-0.476 1.301,-0.945 1.984,-1.382 0.164,-0.149 0.36,-0.282 0.524,-0.411 1.789,-1.171 3.484,-2.308 5.242,-3.468 0.781,-0.5 1.527,-0.989 2.273,-1.496 2.743,-1.743 5.477,-3.418 8.176,-5.047 0.781,-0.41 1.563,-0.848 2.317,-1.289 2.015,-1.172 4.066,-2.325 6.152,-3.434 1.137,-0.633 2.277,-1.183 3.449,-1.769 1.402,-0.766 2.867,-1.547 4.359,-2.317 0.364,-0.144 0.719,-0.277 1.047,-0.453 0.617,-0.277 1.2,-0.586 1.793,-0.879 2.274,-1.125 4.617,-2.183 7.032,-3.258 0.453,-0.215 0.941,-0.41 1.429,-0.652 2.703,-1.172 5.406,-2.297 8.172,-3.387 0.652,-0.242 1.305,-0.535 1.988,-0.765 2.504,-0.977 5.114,-1.938 7.688,-2.868 0.32,-0.125 0.613,-0.222 0.941,-0.339 2.867,-0.977 5.7,-1.907 8.594,-2.797 0.684,-0.196 1.367,-0.442 2.086,-0.621 2.965,-0.895 5.828,-1.938 8.855,-2.504 C 382.23,164.727 438.07,315.27 438.07,315.27 391.152,254.199 307.895,238.066 229.031,256.008 c -2.926,0.668 -5.828,1.594 -8.793,2.472 -0.683,0.196 -1.465,0.426 -2.148,0.668 -2.863,0.868 -5.695,1.793 -8.465,2.739 -0.391,0.129 -0.813,0.277 -1.203,0.437 -2.508,0.864 -4.984,1.809 -7.453,2.77 -0.688,0.293 -1.403,0.535 -2.086,0.797 -2.735,1.074 -5.442,2.23 -8.078,3.386 -0.586,0.211 -1.075,0.453 -1.625,0.684 -2.317,1.059 -4.528,2.101 -6.774,3.176 -0.683,0.293 -1.301,0.617 -1.984,0.961 -1.762,0.828 -3.52,1.757 -5.246,2.664 -1.199,0.621 -2.379,1.191 -3.516,1.828 -2.113,1.137 -4.234,2.344 -6.348,3.515 -0.656,0.438 -1.367,0.817 -2.121,1.219 -2.73,1.633 -5.5,3.309 -8.203,5.031 -0.777,0.489 -1.496,0.977 -2.215,1.485 -1.984,1.254 -3.933,2.57 -5.859,3.871 -0.621,0.437 -1.234,0.898 -1.891,1.351 -1.855,1.305 -3.675,2.626 -5.531,3.977 -0.781,0.613 -1.597,1.234 -2.441,1.856 -1.664,1.285 -3.324,2.55 -4.985,3.89 -0.714,0.602 -1.464,1.188 -2.183,1.774 -2.149,1.726 -4.164,3.453 -6.215,5.242 -0.195,0.211 -0.488,0.39 -0.719,0.566 -2.183,1.953 -4.359,3.961 -6.511,5.945 -0.653,0.618 -1.204,1.192 -1.86,1.778 -1.558,1.527 -3.125,3.023 -4.652,4.574 -0.653,0.648 -1.238,1.25 -1.856,1.867 -1.953,1.977 -3.875,4.004 -5.765,6.09 -0.098,0.082 -0.196,0.184 -0.293,0.293 -1.985,2.184 -3.9065,4.395 -5.8245,6.641 -0.5234,0.605 -1.0117,1.226 -1.5352,1.812 -1.3945,1.723 -2.7968,3.469 -4.2343,5.192 -0.4532,0.668 -0.9727,1.3 -1.4922,1.953 -1.6602,2.133 -3.2578,4.265 -4.8516,6.465 C 40.3125,414.672 24.5234,497.07 59.5234,564.684" /><path
             id="path30"
             style="fill:#2e64b3;fill-opacity:1;fill-rule:nonzero;stroke:none"
             d="m 151.93,573.473 c -28.821,-41.356 -27.223,-96.719 -4.785,-140.481 3.71,-7.328 7.945,-14.441 12.695,-21.199 4.301,-6.188 9.051,-13.512 14.816,-18.477 2.02,-2.281 4.199,-4.492 6.449,-6.722 0.551,-0.555 1.106,-1.09 1.692,-1.676 2.148,-2.07 4.332,-4.106 6.578,-6.09 0.063,-0.082 0.195,-0.168 0.258,-0.242 0.035,-0.02 0.062,-0.051 0.062,-0.051 2.512,-2.219 5.051,-4.316 7.688,-6.367 0.621,-0.438 1.172,-0.93 1.793,-1.367 2.601,-2.035 5.273,-3.989 7.976,-5.906 0.098,-0.036 0.16,-0.098 0.293,-0.153 1.172,-0.844 2.41,-1.629 3.676,-2.441 0.559,-0.36 1.145,-0.781 1.695,-1.125 1.989,-1.281 3.942,-2.488 5.957,-3.676 0.293,-0.145 0.586,-0.312 0.879,-0.457 1.696,-1.027 3.489,-2.031 5.282,-2.945 0.613,-0.375 1.234,-0.668 1.851,-1.012 1.238,-0.613 2.473,-1.27 3.68,-1.902 0.16,-0.086 0.39,-0.184 0.586,-0.262 2.539,-1.254 5.109,-2.41 7.648,-3.563 0.621,-0.246 1.145,-0.461 1.731,-0.703 2.082,-0.894 4.199,-1.773 6.285,-2.574 0.941,-0.309 1.82,-0.684 2.699,-0.992 1.926,-0.684 3.875,-1.352 5.797,-1.985 0.945,-0.308 1.793,-0.57 2.637,-0.847 2.734,-0.863 5.504,-1.973 8.402,-2.426 148.344,-24.602 182.668,89.672 182.668,89.672 -30.906,-44.512 -90.719,-65.707 -154.539,-49.137 -2.863,0.735 -5.664,1.551 -8.399,2.445 -0.878,0.227 -1.66,0.504 -2.507,0.797 -1.985,0.637 -3.969,1.305 -5.895,2.02 -0.879,0.324 -1.789,0.652 -2.668,0.996 -2.117,0.828 -4.23,1.641 -6.281,2.555 -0.621,0.242 -1.207,0.453 -1.695,0.715 -2.637,1.136 -5.246,2.359 -7.786,3.582 -1.3,0.668 -2.57,1.316 -3.875,2 -0.781,0.39 -1.527,0.765 -2.211,1.125 -1.722,0.894 -3.32,1.839 -4.953,2.8 -0.39,0.211 -0.781,0.407 -1.171,0.633 -1.981,1.207 -4.04,2.41 -5.922,3.664 -0.657,0.375 -1.207,0.801 -1.828,1.192 -1.297,0.832 -2.567,1.66 -3.907,2.554 -2.699,1.871 -5.34,3.856 -7.976,5.844 -0.617,0.504 -1.2,0.961 -1.785,1.449 -28.004,22.043 -50.149,52.196 -60.633,86.332 -11.071,35.461 -8.625,75.266 10.457,107.551" /><path
             id="path32"
             style="fill:#2e64b3;fill-opacity:1;fill-rule:nonzero;stroke:none"
             d="M 255.664,609.438 C 238.672,584.496 237.039,553.516 248.766,526 c 12.433,-29.238 37.867,-52.176 67.496,-63.035 1.203,-0.477 2.41,-0.863 3.644,-1.289 0.559,-0.16 1.074,-0.344 1.66,-0.52 1.731,-0.535 3.454,-1.191 5.246,-1.531 81.954,-15.824 104.161,42.051 110.122,50.566 -19.508,-28.035 -52.231,-34.757 -92.379,-25.003 -3.16,0.765 -6.606,1.902 -9.668,3.011 -3.907,1.379 -7.782,2.992 -11.563,4.77 -7.062,3.433 -13.898,7.566 -20.219,12.351 -35.949,27.258 -58.218,79.242 -34.769,121.586" /><path
             id="path34"
             style="fill:#2f2d2e;fill-opacity:1;fill-rule:nonzero;stroke:none"
             d="m 2171.76,497.633 3.26,-13.746 c 0.93,-3.93 -1.57,-7.114 -5.61,-7.114" /><path
             id="path36"
             style="fill:#2f2d2e;fill-opacity:1;fill-rule:nonzero;stroke:none"
             d="m 1910.15,521.223 c -0.82,-3.813 -1.82,-8.621 -2.47,-11.805 l -28.7,-134.305 30.19,141.492 0.98,4.618" /><path
             id="path38"
             style="fill:#2f2d2e;fill-opacity:1;fill-rule:nonzero;stroke:none"
             d="m 1050.41,431.332 -15.84,-56.121 15.84,56.105 0,0.016" /><path
             id="path40"
             style="fill:#2f2d2e;fill-opacity:1;fill-rule:nonzero;stroke:none"
             d="m 2175.02,483.887 -8.27,34.976 c -6.53,25.301 -25,37.266 -66.54,37.266 l -174.73,0 c -4.02,0 -8.04,-1.813 -8.87,-5.754 l -66.29,-314.379 c -0.86,-3.973 -1.12,-6.797 -0.66,-8.766 0.47,-2.027 8.24,-1.648 12.22,-1.648 l 60.52,0 c 4.06,0 11.41,-0.301 13.55,0.566 2.23,0.922 3.23,6.911 4.05,10.879 l 21.39,110.223 26.12,122.273 c 0.86,3.918 4.82,7.133 8.84,7.133 l 173.06,0.117 c 4,0 6.54,3.192 5.61,7.114" /><path
             id="path42"
             style="fill:#2f2d2e;fill-opacity:1;fill-rule:nonzero;stroke:none"
             d="m 2421.23,611.328 c -4.05,-0.043 -76.76,0 -76.76,0 -4.01,0 -9.19,-4.316 -11.43,-7.64 L 2198.31,405.473 c -2.3,-3.328 -4.9,-3.211 -5.79,0.711 l -9.96,43.433 c -0.85,3.942 -4.86,7.156 -8.96,7.156 l -86.58,0 c -3.98,0 -6.39,-3.332 -5.34,-7.211 l 38.82,-136.089 c 1.12,-3.899 1.21,-10.258 0.21,-14.157 l -18.09,-68.929 c -0.96,-3.907 1.51,-5.082 5.6,-5.082 l 85.5,0 c 4.01,0 8.17,1.16 9.15,5.082 l 18.12,69.89 c 0.98,3.899 3.78,9.203 6.19,12.453 l 219.88,291.606 c 2.47,3.187 2.12,7.023 -1.9,7.023 l -23.93,-0.031" /><path
             id="path44"
             style="fill:#2f2d2e;fill-opacity:1;fill-rule:nonzero;stroke:none"
             d="m 1519.66,555.859 -78.16,0 c -3.98,0 -8.07,-1.402 -8.86,-5.351 l -25.83,-120.863 -25.73,-115.727 c -0.83,-3.922 -4.82,-3.652 -8.84,-3.652 l -51.35,0 c -50.81,0 -44.95,32.097 -34.5,80.222 0.12,0.473 32.57,160.02 32.57,160.02 0.73,3.93 -1.91,5.351 -5.88,5.351 l -74.47,0 c -4.02,0 -8,-1.421 -8.8,-5.351 l -29.95,-159.906 c -14.94,-86.457 -15.39,-162.536 84.88,-165.043 1.65,-0.063 158.31,0 158.31,0 4.05,0 8.03,1.332 8.9,5.222 l 34,160.364 33.86,161.027 c 0,0 1.21,3.687 -0.15,3.687" /><path
             id="path46"
             style="fill:#2f2d2e;fill-opacity:1;fill-rule:nonzero;stroke:none"
             d="m 741.227,556.129 -83.786,0 c -4.023,0 -8.07,-0.961 -8.961,-4.914 l -15.125,-65.418 c -0.859,-3.867 1.711,-6.969 5.766,-6.969 l 80.231,0 c 4.05,0 8.066,3.66 8.925,7.563 l 14.567,65.914 c 0,0 1.16,3.824 -1.617,3.824" /><path
             id="path48"
             style="fill:#2f2d2e;fill-opacity:1;fill-rule:nonzero;stroke:none"
             d="m 633.688,456.773 c -3.985,0 -8.075,-3.183 -8.93,-7.121 L 613.453,399.758 588.246,284.523 c 0,0 -13.406,-61.257 -14.691,-65.093 0,0 -11.293,-44.231 -38.274,-42.453 -12.551,0.828 -26.89,3.703 -26.89,3.703 l -0.039,0 c -7.54,2.281 -8.075,-5.551 -8.997,-9.465 l -16.64,-71.7853 c -0.953,-3.9375 1.617,-7.4727 5.605,-7.5195 0,0 36.078,-5.086 61.543,-5.086 l 4.184,0 c 62.933,0 96.18,36.9918 117.43,137.4688 l 24.906,116.289 23.363,108.195 c 0.859,3.942 -1.519,7.602 -5.535,7.602" /><path
             id="path50"
             style="fill:#2f2d2e;fill-opacity:1;fill-rule:nonzero;stroke:none"
             d="m 1754.56,418.297 c 0,-4.367 -13.79,-3.535 -13.79,-3.535 l -109.88,0.797 c -3.79,0 -4.88,5.32 -5.15,9.129 -0.01,0.128 0.28,4.566 0.6,5.664 8.5,29.464 33.84,46.289 74.01,46.289 45.19,0 54.85,-22.418 54.85,-47.278 m -37.8,127.242 c -140.94,0 -174.59,-87.109 -193.3,-173.453 -18.72,-88.035 -17.13,-157.621 128.71,-157.621 l 5.27,0 c 57.86,0 128.15,0 128.15,0 3.95,0.074 7.9,3.692 8.69,7.594 l 14.34,55.852 c 0.83,3.953 -1.84,5.117 -5.82,5.117 l -131.16,0 c -47.51,0 -64.54,14.633 -62.88,47.5 -0.02,3.738 4.26,13.254 8.28,13.254 l 202.03,0 c 8.87,0.054 9.16,5.246 9.16,5.246 20.56,92.82 21.9,196.511 -111.47,196.511" /><path
             id="path52"
             style="fill:#2f2d2e;fill-opacity:1;fill-rule:nonzero;stroke:none"
             d="m 1033.81,375.211 -16.25,-55.52 c -1.12,-3.89 -5.7,-6.488 -9.72,-6.488 l -83.785,0 c -63.586,0 -79.039,49.141 -63.586,122.473 15.515,74.949 46.261,121.328 108.789,126.023 85.502,6.438 102.992,-53.941 82.272,-123.344 l -17.72,-63.144 z m 74.46,-58.824 c 0,0 39.47,95.886 48.42,151.304 12.27,74.168 -24.84,181.727 -168.292,181.727 -142.593,0 -204.472,-102.68 -228.16,-214.328 -23.59,-112.442 7.289,-210.348 149.102,-209.559 l 216.45,0.133 c 4,0.016 8.15,3.242 9.17,7.086 l 18.25,69.477 c 0.98,3.925 -1.49,7.109 -5.54,7.125 l -17.43,0.128 -17.42,0.075 c -3.44,0.035 -5.42,2.261 -4.95,5.211 0.07,0.531 0.14,1.07 0.4,1.621" /></g></g></g></g></svg>