<?xml version="1.0" encoding="utf-8"?>
<!-- Generator: Adobe Illustrator 16.2.1, SVG Export Plug-In . SVG Version: 6.00 Build 0)  -->
<!DOCTYPE svg PUBLIC "-//W3C//DTD SVG 1.1//EN" "http://www.w3.org/Graphics/SVG/1.1/DTD/svg11.dtd">
<svg version="1.1"
	 id="svg2" xmlns:svg="http://www.w3.org/2000/svg" xmlns:cc="http://creativecommons.org/ns#" xmlns:dc="http://purl.org/dc/elements/1.1/" xmlns:rdf="http://www.w3.org/1999/02/22-rdf-syntax-ns#"
	 xmlns="http://www.w3.org/2000/svg" xmlns:xlink="http://www.w3.org/1999/xlink" x="0px" y="0px" width="297.208px"
	 height="79.76px" viewBox="0 0.002 297.208 79.76" enable-background="new 0 0.002 297.208 79.76" xml:space="preserve">
<g id="g10" transform="matrix(1.25,0,0,-1.25,0,475.1)">
	<g id="g12" transform="scale(0.1,0.1)">
		<g id="g14">
			<g>
				<g id="g16">
					<path id="path22" fill="#2F2D2E" d="M1591.398,3777.28h-89.258c-4.941,0-9.852-5.18-10.98-10.012l-31.691-147.168
						l-31.648-149.808c-1.09-4.852-5.992-12-10.961-12h-63.188c-62.441,0-55.211,46.137-42.422,105.386l25.59,132.031l14.379,71.559
						c1.031,4.832-2.188,10.012-7.16,10.012h-91.68c-4.938,0-9.801-5.18-10.84-10.012l-41.258-196.859
						c-22.672-103.64-16.641-199.73,106.73-202.781c1.949-0.027,197.41,0,197.41,0c4.938,0,9.879,1.273,10.867,6.082l41.473,197.539
						l41.789,196.742C1599.621,3772.839,1596.371,3777.28,1591.398,3777.28"/>
					<path id="path24" fill="#2F2D2E" d="M1054.012,3584.671l-18.133-64.101l-17.5-56.48c-1.117-3.91-6.828-6.531-10.867-6.531
						h-85.086c-64.566,0-80.242,49.883-64.566,124.32c15.695,76.172,47.961,123.18,111.465,128.012
						C1056.129,3716.448,1075,3655.108,1054.012,3584.671 M1109.461,3460.769c0,0,40.078,97.48,49.258,153.66
						c12.32,75.371-25.32,184.551-170.961,184.551c-144.812,0-207.703-104.27-231.684-217.621
						c-23.965-114.187,7.473-214.32,151.406-213.457l219.809,0.758c4.051,0.039,8.23,3.281,9.281,7.191l18.5,70.559
						c1.031,3.949-1.492,7.23-5.602,7.27l-17.629,0.062l-17.809,0.137c-3.43,0.07-5.43,2.25-5,5.23L1109.461,3460.769"/>
					<path id="path26" fill="#2F2D2E" d="M1876.445,3381.82c-1.297-6.527-7.797-13.93-14.422-13.93h-78.656
						c-6.625,0-10.898,7.402-9.609,13.891c0,0,31.688,153.039,33.211,159.469c0,0,13.562,57.601-29.102,57.601h-36.059
						c-6.699,0-13.199-5.402-14.578-11.871l-43.859-205.16c-1.359-6.5-7.891-13.93-14.512-13.93h-76.039
						c-6.562,0-10.91,7.402-9.512,13.891l62.512,296.261c1.391,6.5,7.891,14.348,14.508,14.348c0,0,130.727,0,160.203,0
						c129.102,0,90.047-144.309,90.047-144.309C1908.828,3541.781,1876.445,3381.82,1876.445,3381.82"/>
					<path id="path28" fill="#2F2D2E" d="M2062.648,3708.901c-28.438,0-49.25,8.879-41.688,44.18
						c7.609,35.359,32.211,44.18,60.578,44.18c27.156,0,48.633-8.82,41-44.18C2115.023,3718.44,2090.391,3708.901,2062.648,3708.901
						 M2037.461,3381.781c-1.359-6.492-7.961-13.891-14.578-13.891h-79.297c-6.625,0-10.805,7.398-9.406,13.832l63.93,293.687
						c1.445,6.43,7.945,12.922,14.508,12.922h77.063c6.656,0,10.906-7.453,9.578-13.953L2037.461,3381.781"/>
					<path id="path30" fill="#2F2D2E" d="M2154.25,3367.628c-6.539,0.262-10.664,7.863-9.227,14.352l49.172,223.84
						c1.406,6.391-2.805,11.73-9.438,11.73h-37.859c-6.594,0-10.766,5.242-9.203,11.699l10.664,46.102
						c1.562,6.441,8.258,13.191,14.852,13.191h41.469c6.531,0,13.125,3.707,14.547,10.277l12.438,53.301
						c1.359,6.461,7.914,7.891,14.578,7.891h62.078c6.602,0,10.875-2.191,9.484-8.652l-12.078-54.129
						c-1.344-6.5,2.922-8.688,9.484-8.688h52.906c6.562,0,10.742-6.75,9.242-13.191l-10.836-46.402
						c-1.453-6.457-8.156-11.957-14.742-11.957h-48.898c-6.594,0-13.156-5.77-14.656-12.242l-49.172-225.578
						c-1.336-6.473-7.891-11.742-14.453-11.531L2154.25,3367.628"/>
					<path id="path32" fill="#992094" d="M603.008,3264.948c0-32.617-32.895-67.148-65.625-67.148H62.246
						C29.598,3197.8,0,3232.331,0,3264.948v475.23c0,32.621,29.598,60.602,62.246,60.602h475.137
						c32.73,0,65.625-27.98,65.625-60.602V3264.948"/>
					<path id="path34" fill="#FFFFFF" d="M531.168,3476.62l-15.445-72.59L531.168,3476.62"/>
					<path id="path36" fill="#FFFFFF" d="M491.508,3476.62l-11.711-54.23L491.508,3476.62"/>
					<path id="path38" fill="#FFFFFF" d="M528.5,3481.878h-32.949c-1.855,0-3.711-2.477-4.043-4.258l-11.711-54.699l-11.672-56.812
						c-0.414-1.859-2.27-5.969-4.094-5.969h-23.332c-23.102,0-20.449,18.359-15.762,40.238l0.215,1.922l0.484,3.379l0.094,0.793
						l1.094,5.777l1.113,6.102c0.348,1.789,0.863,4.508,1.172,6.188l5.34,26.031l5.355,27.051c0.383,1.781-0.828,4.258-2.652,4.258
						h-33.891c-1.84,0-3.648-2.477-3.992-4.258l-5.406-35.07l-7.957-36.871c-8.418-38.309-8.035-74.578,37.508-74.578h72.871
						c1.855,0,3.66,0,4.008,1.859l15.43,71.859l15.445,73.191C531.582,3479.73,530.371,3481.878,528.5,3481.878"/>
					<path id="path40" fill="#FFFFFF" d="M289.141,3507.339l-13.387-53.391l-13.012-44.418c-0.828-3.281-5.121-2.98-8.203-2.98
						h-63.145c-47.789,0-59.461,39-47.789,101.031c11.684,63.367,35.578,101.219,82.695,105.258
						C290.754,3618.249,304.703,3565.979,289.141,3507.339 M330.227,3404.23c0,0,29.762,81.039,36.492,127.941
						c9.164,62.636-18.727,153.519-126.781,153.519c-107.387,0-154.09-86.762-171.891-181.101
						c-17.781-95.031,5.539-178.391,112.328-177.73l84.32,0.371l78.805,0.301c2.949,0,6.078,2.781,6.848,6.031l13.707,58.668
						c0.773,3.34-1.066,6.031-4.098,6.031l-13.141,0.129l-13.16,0.07c-2.637,0.059-4.062,1.859-3.793,4.41L330.227,3404.23"/>
					<path id="path42" fill="#992094" d="M1295.601,3313.609l24.488,3.371l-5.41-25.211l-24.34-3.359L1295.601,3313.609z
						 M1254.762,3179.011c12.078,9.078,14.637,10.418,16.27,18.488l16.91,79.98l24.508,3.359l-18.508-87.211
						c-2.23-10.75-5.641-16.637-28.16-30.93L1254.762,3179.011"/>
					<path id="path44" fill="#992094" d="M1313.859,3201.191l5.141,17.48c6.148-2.191,13.141-4.199,22.039-4.199
						c7.922,0,8.5,2.348,9.301,6.207c0.801,3.699-1.469,5.711-10.551,10.59c-16.828,9.07-17.301,15.121-14.68,27.391
						c3.812,17.648,9.191,22.352,31.879,22.352c7.742,0,17.602-1.672,24.25-3.859l-4.477-17.812c-6,1.68-14.883,3.02-20.59,3.02
						c-7.062,0-8.094-0.84-9.094-5.207c-0.809-3.863,0.012-4.703,7.762-8.91c18.48-10.082,21.211-13.613,18.41-26.551
						c-4-18.48-9.648-25.883-34.199-25.883C1331.488,3195.808,1320.969,3197.999,1313.859,3201.191"/>
					<path id="path46" fill="#992094" d="M1445.101,3223.878l-0.422-2.52c-0.059-1.68,0.75-2.52,3.102-2.52
						c4.379,0,15.309,4.699,21.457,7.73l10.684,50.91l24.5,3.359l-17.543-83.34h-20.168l0.09,7.559
						c-12.98-6.047-23.191-9.25-32.609-9.25c-10.762,0-14.742,6.391-14.383,16.641c0.121,3.359,0.551,6.051,1.18,9.41l11.691,55.621
						l24.32,3.359L1445.101,3223.878"/>
					<path id="path48" fill="#992094" d="M1566.148,3253.12c0.211,1,0.402,1.852,0.422,2.52c0.059,1.68-0.75,2.352-3.102,2.352
						c-4.379,0-14.949-4.371-21.469-7.73l-11.09-52.762h-23.711l16.762,79.82l20.961,3.52l-0.492-9.07
						c13,6.051,23.199,9.242,32.609,9.242c10.941,0,14.762-6.219,14.402-16.633c-0.109-2.859-0.359-5.207-1.18-9.406l-12.102-57.473
						h-23.711L1566.148,3253.12"/>
					<path id="path50" fill="#992094" d="M1622.219,3313.609l24.5,3.371l-5.418-25.211l-24.34-3.359L1622.219,3313.609z
						 M1614.558,3277.48l24.492,3.359l-17.699-83.34h-23.711L1614.558,3277.48"/>
					<path id="path52" fill="#992094" d="M1682.891,3260.339l-8.652-40.828l-0.418-2.191c-0.039-1.18,0.609-1.68,2.289-1.68
						c4.051,0,8.641,1.68,12.902,3.359l4.129-16.469c-6.852-3.691-16.699-6.719-26.289-6.719c-11.941,0-18.133,5.707-17.793,15.457
						c0.043,1.18,0.262,2.359,0.461,3.531l9.66,45.539h-12.102l4.023,19h12.109l4.051,19.652l24.5,3.371l-4.852-23.023h19.52
						l-5.379-19H1682.891"/>
					<path id="path54" fill="#992094" d="M1778.367,3260.339l-8.648-40.828l-0.414-2.191c-0.047-1.18,0.609-1.68,2.281-1.68
						c4.047,0,8.641,1.68,12.906,3.359l4.125-16.469c-6.844-3.691-16.703-6.719-26.297-6.719c-11.93,0-18.121,5.707-17.781,15.457
						c0.039,1.18,0.25,2.359,0.461,3.531l9.66,45.539h-12.102l4.02,19h12.117l4.031,19.652l24.516,3.371l-4.844-23.023h19.5
						l-5.367-19H1778.367"/>
					<path id="path56" fill="#992094" d="M1849.742,3257.991c0.086,2.859-2.359,4.707-6.734,4.707
						c-8.578,0-11.281-4.879-12.688-11.598l-1.203-5.711c4.062,1,5.922,1.34,10.859,2.852
						C1846.43,3250.089,1849.555,3253.12,1849.742,3257.991L1849.742,3257.991z M1806.57,3250.089
						c4.031,18.82,12.852,30.922,38.75,30.922c15.469,0,27-6.719,26.531-20.5c-0.562-15.961-9.062-23.359-29.453-29.402
						c-10.016-3.027-10.188-3.027-17.32-4.879l-1.195-5.711c-0.625-3.027-0.375-5.719,3.984-5.719
						c8.594,0,21.172,4.199,32.438,9.078l3.969-16.809c-10.156-6.219-25.969-11.258-40.422-11.258
						c-16.984,0-23.961,7.398-23.469,21.34c0.094,3.027,0.562,6.391,1.359,9.918L1806.57,3250.089"/>
					<path id="path58" fill="#992094" d="M1873.805,3201.191l5.141,17.48c6.141-2.191,13.133-4.199,22.047-4.199
						c7.906,0,8.477,2.348,9.289,6.207c0.805,3.699-1.477,5.711-10.555,10.59c-16.828,9.07-17.297,15.121-14.672,27.391
						c3.805,17.648,9.188,22.352,31.875,22.352c7.742,0,17.602-1.672,24.25-3.859l-4.484-17.812c-6,1.68-14.867,3.02-20.586,3.02
						c-7.055,0-8.102-0.84-9.086-5.207c-0.812-3.863,0.008-4.703,7.766-8.91c18.469-10.082,21.211-13.613,18.406-26.551
						c-4-18.48-9.656-25.883-34.203-25.883C1891.43,3195.808,1880.914,3197.999,1873.805,3201.191"/>
					<path id="path60" fill="#992094" d="M1984.117,3260.339l-8.648-40.828l-0.414-2.191c-0.047-1.18,0.609-1.68,2.281-1.68
						c4.055,0,8.641,1.68,12.906,3.359l4.141-16.469c-6.859-3.691-16.711-6.719-26.305-6.719c-11.938,0-18.133,5.707-17.789,15.457
						c0.039,1.18,0.266,2.359,0.461,3.531l9.664,45.539h-12.109l4.023,19h12.117l4.047,19.652l24.5,3.371l-4.852-23.023h19.523
						l-5.375-19H1984.117"/>
					<path id="path62" fill="#992094" d="M2029.195,3313.609l24.5,3.371l-5.422-25.211l-24.328-3.359L2029.195,3313.609
						L2029.195,3313.609z M2021.531,3277.48l24.5,3.359l-17.711-83.34h-23.711L2021.531,3277.48"/>
					<path id="path64" fill="#992094" d="M2107.602,3253.12c0.203,1,0.398,1.852,0.422,2.52c0.055,1.68-0.75,2.352-3.109,2.352
						c-4.375,0-14.953-4.371-21.469-7.73l-11.094-52.762h-23.711l16.758,79.82l20.969,3.52l-0.484-9.07
						c13,6.051,23.188,9.242,32.609,9.242c10.93,0,14.75-6.219,14.391-16.633c-0.109-2.859-0.352-5.207-1.172-9.406l-12.102-57.473
						h-23.711L2107.602,3253.12"/>
					<path id="path66" fill="#992094" d="M2166.117,3225.39c-0.984-4.371,0.125-6.391,4.328-6.391
						c5.203,0,13.734,3.371,18.719,6.391l7.445,35.289c-2.828,0.34-5.859,0.5-9.227,0.5c-12.273,0-14.828-6.039-16.633-13.938
						L2166.117,3225.39L2166.117,3225.39z M2185.141,3206.23c-7.039-4.031-15.227-7.051-24.133-7.051
						c-17.828,0-21.812,10.922-17.977,29.23l4.008,18.66c4.422,20.668,10.102,33.941,45.078,33.941c8.578,0,21.305-1.5,31.609-4.871
						l-19.312-90.75c-3.828-18.309-11.891-22.691-33.75-22.691c-9.75,0-26.281,3.031-36.266,6.391l4.781,16.641
						c12.516-3.02,22.703-4.711,32.453-4.711c7.062,0,8.844,2.691,10.047,8.242L2185.141,3206.23"/>
				</g>
			</g>
		</g>
	</g>
</g>
</svg>
